TITLE ""
FILE "DISC1Track24.mp3" MP3
  TRACK 01 AUDIO
    TITLE "DISC1Track24_01"
    INDEX 01 00:00:00
  TRACK 02 AUDIO
    TITLE "DISC1Track24_02"
    INDEX 01 00:05:27
  TRACK 03 AUDIO
    TITLE "DISC1Track24_03"
    INDEX 01 00:05:49
  TRACK 04 AUDIO
    TITLE "DISC1Track24_04"
    INDEX 01 00:08:37
  TRACK 05 AUDIO
    TITLE "DISC1Track24_05"
    INDEX 01 00:11:22
  TRACK 06 AUDIO
    TITLE "DISC1Track24_06"
    INDEX 01 00:13:72
  TRACK 07 AUDIO
    TITLE "DISC1Track24_07"
    INDEX 01 00:14:22
  TRACK 08 AUDIO
    TITLE "DISC1Track24_08"
    INDEX 01 00:17:17
  TRACK 09 AUDIO
    TITLE "DISC1Track24_09"
    INDEX 01 00:19:70
  TRACK 10 AUDIO
    TITLE "DISC1Track24_10"
    INDEX 01 00:22:43
  TRACK 11 AUDIO
    TITLE "DISC1Track24_11"
    INDEX 01 00:22:69
  TRACK 12 AUDIO
    TITLE "DISC1Track24_12"
    INDEX 01 00:25:28
  TRACK 13 AUDIO
    TITLE "DISC1Track24_13"
    INDEX 01 00:27:46
  TRACK 14 AUDIO
    TITLE "DISC1Track24_14"
    INDEX 01 00:29:59
  TRACK 15 AUDIO
    TITLE "DISC1Track24_15"
    INDEX 01 00:30:06
  TRACK 16 AUDIO
    TITLE "DISC1Track24_16"
    INDEX 01 00:32:49
  TRACK 17 AUDIO
    TITLE "DISC1Track24_17"
    INDEX 01 00:34:44
  TRACK 18 AUDIO
    TITLE "DISC1Track24_18"
    INDEX 01 00:36:32
  TRACK 19 AUDIO
    TITLE "DISC1Track24_19"
    INDEX 01 00:36:55
  TRACK 20 AUDIO
    TITLE "DISC1Track24_20"
    INDEX 01 00:39:57
  TRACK 21 AUDIO
    TITLE "DISC1Track24_21"
    INDEX 01 00:42:22
  TRACK 22 AUDIO
    TITLE "DISC1Track24_22"
    INDEX 01 00:44:55
  TRACK 23 AUDIO
    TITLE "DISC1Track24_23"
    INDEX 01 00:45:03
  TRACK 24 AUDIO
    TITLE "DISC1Track24_24"
    INDEX 01 00:46:57
  TRACK 25 AUDIO
    TITLE "DISC1Track24_25"
    INDEX 01 00:48:52
  TRACK 26 AUDIO
    TITLE "DISC1Track24_26"
    INDEX 01 00:50:42
  TRACK 27 AUDIO
    TITLE "DISC1Track24_27"
    INDEX 01 00:50:65
  TRACK 28 AUDIO
    TITLE "DISC1Track24_28"
    INDEX 01 00:54:22
  TRACK 29 AUDIO
    TITLE "DISC1Track24_29"
    INDEX 01 00:57:57
  TRACK 30 AUDIO
    TITLE "DISC1Track24_30"
    INDEX 01 01:01:16
  TRACK 31 AUDIO
    TITLE "DISC1Track24_31"
    INDEX 01 01:01:37
  TRACK 32 AUDIO
    TITLE "DISC1Track24_32"
    INDEX 01 01:04:16
  TRACK 33 AUDIO
    TITLE "DISC1Track24_33"
    INDEX 01 01:07:01
  TRACK 34 AUDIO
    TITLE "DISC1Track24_34"
    INDEX 01 01:09:43
  TRACK 35 AUDIO
    TITLE "DISC1Track24_35"
    INDEX 01 01:10:03
  TRACK 36 AUDIO
    TITLE "DISC1Track24_36"
    INDEX 01 01:13:15
  TRACK 37 AUDIO
    TITLE "DISC1Track24_37"
    INDEX 01 01:16:02
  TRACK 38 AUDIO
    TITLE "DISC1Track24_38"
    INDEX 01 01:18:57
  TRACK 39 AUDIO
    TITLE "DISC1Track24_39"
    INDEX 01 01:19:04
  TRACK 40 AUDIO
    TITLE "DISC1Track24_40"
    INDEX 01 01:22:38
  TRACK 41 AUDIO
    TITLE "DISC1Track24_41"
    INDEX 01 01:25:40
  TRACK 42 AUDIO
    TITLE "DISC1Track24_42"
    INDEX 01 01:28:36
  TRACK 43 AUDIO
    TITLE "DISC1Track24_43"
    INDEX 01 01:28:58
  TRACK 44 AUDIO
    TITLE "DISC1Track24_44"
    INDEX 01 01:33:16
  TRACK 45 AUDIO
    TITLE "DISC1Track24_45"
    INDEX 01 01:36:40
  TRACK 46 AUDIO
    TITLE "DISC1Track24_46"
    INDEX 01 01:39:54
